<svg width="256" height="256" viewBox="0 0 256 256" fill="none" xmlns="http://www.w3.org/2000/svg">
  <!-- 背景圆形 -->
  <circle cx="128" cy="128" r="120" fill="#4F46E5" stroke="#3730A3" stroke-width="4"/>
  
  <!-- 文件夹图标 -->
  <path d="M60 80H120L140 100H196C202.627 100 208 105.373 208 112V184C208 190.627 202.627 196 196 196H60C53.3726 196 48 190.627 48 184V92C48 85.3726 53.3726 80 60 80Z" fill="#FFFFFF" stroke="#E5E7EB" stroke-width="2"/>
  
  <!-- 照片图标 -->
  <rect x="70" y="110" width="50" height="40" rx="4" fill="#10B981" stroke="#059669" stroke-width="2"/>
  <circle cx="85" cy="125" r="3" fill="#FFFFFF"/>
  <path d="M115 145L105 135L80 145" stroke="#FFFFFF" stroke-width="2" stroke-linecap="round"/>
  
  <!-- 视频图标 -->
  <rect x="136" y="110" width="50" height="40" rx="4" fill="#F59E0B" stroke="#D97706" stroke-width="2"/>
  <polygon points="150,125 150,135 170,130" fill="#FFFFFF"/>
  
  <!-- 上传箭头 -->
  <path d="M128 160L128 200M128 160L115 173M128 160L141 173" stroke="#FFFFFF" stroke-width="4" stroke-linecap="round" stroke-linejoin="round"/>
  
  <!-- 装饰性元素 -->
  <circle cx="80" cy="60" r="4" fill="#FFFFFF" opacity="0.6"/>
  <circle cx="176" cy="60" r="4" fill="#FFFFFF" opacity="0.6"/>
  <circle cx="200" cy="120" r="4" fill="#FFFFFF" opacity="0.6"/>
  <circle cx="56" cy="140" r="4" fill="#FFFFFF" opacity="0.6"/>
</svg>